<svg width="20" height="20" viewBox="0 0 20 20" fill="none" xmlns="http://www.w3.org/2000/svg">
<path fill-rule="evenodd" clip-rule="evenodd" d="M4.58093 5.39392L9.92982 3.01664C9.98022 2.99424 10.0378 2.99424 10.0882 3.01664L15.437 5.39392C15.5074 5.42521 15.5528 5.49501 15.5528 5.57204V9.16364C15.5528 12.7266 13.1493 16.0148 10.009 16.9521C6.86866 16.0148 4.46517 12.7266 4.46517 9.16364V5.57204C4.46517 5.49502 4.51053 5.42521 4.58093 5.39392ZM10.6297 1.79822C10.2345 1.6226 9.78346 1.6226 9.3883 1.79822L4.03941 4.17551C3.48751 4.42079 3.13184 4.9681 3.13184 5.57204V9.16364C3.13184 13.4045 6.06609 17.3704 10.009 18.3332C13.9519 17.3704 16.8861 13.4045 16.8861 9.16364V5.57204C16.8861 4.9681 16.5305 4.42079 15.9786 4.17551L10.6297 1.79822ZM12.2935 10.5248C12.666 10.274 12.666 9.72579 12.2935 9.47492L9.31237 7.46688C8.89195 7.1837 8.32583 7.48495 8.32583 7.99184V12.0079C8.32583 12.5148 8.89195 12.816 9.31237 12.5329L12.2935 10.5248Z" fill="url(#paint0_linear_773_5951)"/>
<defs>
<linearGradient id="paint0_linear_773_5951" x1="16.1716" y1="17.1814" x2="0.702048" y2="4.67101" gradientUnits="userSpaceOnUse">
<stop offset="0.0260417" stop-color="#FA7250"/>
<stop offset="0.401042" stop-color="#FF1893"/>
<stop offset="0.994792" stop-color="#A78AFF"/>
</linearGradient>
</defs>
</svg>
